<svg xmlns="http://www.w3.org/2000/svg" width="256" height="256" viewBox="0 0 256 256">
  <defs>
    <linearGradient id="bg" x1="0" y1="0" x2="1" y2="1">
      <stop offset="0%" stop-color="#0f766e"/>
      <stop offset="100%" stop-color="#1d4ed8"/>
    </linearGradient>
    <linearGradient id="glow" x1="0" y1="0" x2="0" y2="1">
      <stop offset="0%" stop-color="#fde68a"/>
      <stop offset="100%" stop-color="#f59e0b"/>
    </linearGradient>
  </defs>
  <rect x="20" y="20" width="216" height="216" rx="56" fill="url(#bg)"/>
  <path d="M98 64h60l10 24h-80z" fill="#dbeafe" opacity="0.95"/>
  <path d="M92 88h72l20 88c2 10-6 16-16 16H88c-10 0-18-6-16-16z" fill="#eff6ff" opacity="0.98"/>
  <rect x="108" y="28" width="40" height="18" rx="9" fill="#bfdbfe"/>
  <rect x="108" y="52" width="40" height="12" rx="6" fill="#93c5fd"/>
  <path d="M128 103c16 0 29 13 29 29s-13 43-29 43-29-27-29-43 13-29 29-29z" fill="url(#glow)"/>
  <circle cx="128" cy="132" r="11" fill="#fff7ed"/>
  <path d="M184 102c14 6 24 18 29 34" fill="none" stroke="#86efac" stroke-width="10" stroke-linecap="round" opacity="0.85"/>
  <path d="M195 75c24 10 42 29 50 53" fill="none" stroke="#a7f3d0" stroke-width="8" stroke-linecap="round" opacity="0.75"/>
  <path d="M72 102c-14 6-24 18-29 34" fill="none" stroke="#86efac" stroke-width="10" stroke-linecap="round" opacity="0.85"/>
  <path d="M61 75C37 85 19 104 11 128" fill="none" stroke="#a7f3d0" stroke-width="8" stroke-linecap="round" opacity="0.75"/>
  <path d="M151 184l14 14 31-31" fill="none" stroke="#10b981" stroke-width="12" stroke-linecap="round" stroke-linejoin="round"/>
</svg>
